<svg width="526" height="526" viewBox="0 0 526 526" fill="none" xmlns="http://www.w3.org/2000/svg">
<path d="M521.004 0C523.765 0.000129749 526.004 2.23866 526.004 5V520.998C526.004 523.759 523.765 525.998 521.004 525.998H275.057C275.833 522.407 276.809 518.874 278.053 515.51C292.363 491.238 378.493 484.204 378.493 442.99C378.525 437.452 377.988 431.927 376.892 426.514C371.84 401.404 354.941 389.229 341.869 383.173C340.632 382.598 339.437 382.07 338.287 381.62C334.415 380.067 331.097 379.011 328.782 378.297C326.946 377.774 325.049 377.533 323.148 377.582C309.946 377.582 287.805 385.937 268.751 386.107C249.696 385.937 227.555 377.582 214.353 377.582C212.453 377.541 210.557 377.782 208.72 378.297C206.216 379.073 202.518 380.222 198.253 382.023L197.176 382.489C183.944 388.297 165.937 400.332 160.479 426.405C159.364 431.853 158.817 437.415 158.849 442.99C158.849 484.204 245.038 491.238 259.289 515.51C260.543 518.873 261.528 522.407 262.312 525.998H5C2.23862 525.998 6.60784e-05 523.759 0 520.998V5C2.2243e-06 2.23858 2.23858 0 5 0H521.004ZM127.915 173.856C100.811 152.566 61.8282 168.251 38.9307 188.733C-4.73916 227.758 4.99904 304.47 61.668 324.301C66.9374 326.133 67.6651 328.649 64.4336 333.168C54.3459 347.284 42.8756 359.94 36.9365 376.648C32.8115 388.191 30.8332 400.481 31.1133 412.831C31.1133 415.565 32.933 442.925 38.3916 437.103C60.4593 413.809 77.1268 409.554 97.5205 420.983C115.76 431.201 133.112 436.046 153.812 431.527C143.971 433.375 127.071 429.571 117.871 426.869C108.933 424.291 100.403 419.198 95.2646 411.139C90.0097 402.831 89.0051 392.208 90.7373 382.44C97.2006 346.32 130.361 317.701 165.864 331.195C171.535 333.544 176.618 337.265 180.712 342.065C187.583 349.69 193.813 358.526 197.408 368.465C197.976 370.018 198.457 371.695 198.864 373.341L199.505 373.093C203.872 371.354 207.54 370.235 210.146 369.428C212.703 368.695 215.344 368.35 217.991 368.402C224.964 368.402 233.611 370.266 242.738 372.254L248.706 373.543C256.919 375.449 265.272 376.582 273.671 376.928H274.107C277.455 376.493 280.877 375.903 284.225 375.251C287.82 374.568 291.357 373.791 294.749 373.062C303.876 371.074 312.523 369.21 319.495 369.21C322.147 369.158 324.793 369.503 327.355 370.235C329.961 371.043 333.687 372.161 337.996 373.9L338.637 374.148C339.043 372.497 339.529 370.87 340.093 369.272C344.603 357.351 351.84 346.823 361.142 338.649C379.25 322.561 406.718 326.91 423.982 341.957C435.914 352.439 444.026 367.049 446.909 383.248C448.656 393.016 447.637 403.637 442.396 411.945C437.302 420.005 428.713 425.099 419.79 427.677C410.576 430.348 393.675 434.152 383.85 432.335C404.549 436.854 421.887 432.009 440.126 421.791C460.505 410.362 477.187 414.586 499.27 437.91C502.821 441.683 504.495 435.146 505.092 432.429C508.417 415.482 507.325 397.887 501.934 381.556C496.009 363.806 484.494 349.783 473.97 334.922L473.242 333.897C470.011 329.379 470.738 326.863 476.022 325.03C532.691 305.2 542.43 228.487 498.76 189.463C475.848 168.98 436.865 153.296 409.775 174.586C399.596 179.213 391.122 187.276 385.654 197.538C382.612 202.926 378.828 207.849 377.052 213.921C375.683 218.704 373.209 219.2 369.061 217.026C342.394 203.595 313.593 195.651 284.166 193.609C254.607 191.468 224.93 195.153 196.622 204.479C187.046 207.737 177.689 211.685 168.615 216.297C164.481 218.409 162.007 217.85 160.639 213.191C158.863 207.12 155.077 202.197 152.035 196.809C146.564 186.55 138.092 178.487 127.915 173.856ZM388.926 352.486C383.049 350.291 376.735 349.774 370.613 350.987C364.491 352.201 358.773 355.102 354.026 359.402C349.28 363.703 345.671 369.252 343.558 375.501C350.432 378.52 356.864 382.579 362.655 387.552C373.879 397.142 381.554 410.666 384.315 425.722C390.415 424.385 396.081 421.368 400.75 416.973C405.419 412.577 408.928 406.954 410.93 400.664C412.931 394.374 413.356 387.634 412.161 381.115C410.966 374.596 408.192 368.523 404.116 363.501C400.04 358.479 394.803 354.681 388.926 352.486ZM165.932 350.434C160.083 349.931 154.208 350.975 148.827 353.473C143.446 355.97 138.725 359.844 135.083 364.752C131.441 369.66 128.989 375.45 127.944 381.61C126.9 387.77 127.295 394.11 129.095 400.068C130.895 406.027 134.045 411.42 138.265 415.77C142.484 420.119 147.644 423.293 153.287 425.008C155.863 411.589 162.38 399.393 171.891 390.191C169.958 389.505 168.241 388.263 166.928 386.603C165.615 384.941 164.756 382.925 164.448 380.777C164.14 378.629 164.395 376.432 165.183 374.428C165.971 372.424 167.262 370.692 168.914 369.421C170.566 368.15 172.516 367.39 174.547 367.226C176.578 367.061 178.613 367.498 180.426 368.488C182.239 369.478 183.761 370.983 184.823 372.837C185.886 374.691 186.448 376.822 186.447 378.995C186.454 379.083 186.454 379.172 186.447 379.26C189.435 377.567 192.512 376.057 195.662 374.74L196.288 374.492C195.712 372.888 195.026 371.33 194.235 369.833C191.376 364.367 187.297 359.736 182.36 356.353C177.424 352.969 171.781 350.936 165.932 350.434ZM389.498 367.24C391.677 367.246 393.806 367.939 395.617 369.23C397.437 370.528 398.855 372.372 399.691 374.529C400.528 376.687 400.746 379.061 400.318 381.351C399.89 383.64 398.835 385.743 397.286 387.393C395.737 389.042 393.765 390.166 391.618 390.619C389.471 391.073 387.247 390.837 385.226 389.941C383.204 389.046 381.478 387.531 380.264 385.588C379.05 383.645 378.402 381.361 378.405 379.026C378.405 377.472 378.694 375.933 379.254 374.498C379.814 373.063 380.634 371.761 381.668 370.665C382.702 369.57 383.928 368.703 385.276 368.115C386.616 367.531 388.051 367.234 389.498 367.24ZM259.755 206.731C285.724 205.613 311.547 207.399 336.352 216.965C344.678 220.179 352.932 223.611 360.05 229.388C362.481 231.142 365.727 233.208 364.082 237.105V237.168C362.408 241.128 358.492 240.894 355.348 239.916C348.259 237.695 341.286 235.04 334.357 232.292C319.932 226.531 304.952 224.357 289.668 223.596C285.301 223.378 282.943 224.403 283.074 229.48C283.039 231.67 282.86 233.856 282.536 236.019C282.172 239.512 283.773 240.553 286.902 240.678C304.37 241.05 320.383 246.997 335.798 254.933C337.562 256.039 339.146 257.445 340.485 259.095C342.975 261.735 345.769 264.638 343.848 268.707C341.926 272.775 338.026 273.862 333.877 273.365C327.576 272.317 321.401 270.536 315.463 268.055C305.113 264.141 294.327 262.573 283.584 260.71C275.825 259.359 281.095 266.828 279.668 267.807C276.277 276.347 280.439 277.807 285.65 279.034C294.896 281.188 303.939 284.233 312.668 288.134C314.006 288.696 315.314 289.339 316.584 290.06C320.747 292.575 324.153 295.79 322.828 301.566C321.838 305.883 315.783 308.803 310.354 307.374C300.79 304.858 290.906 302.964 281.866 298.973C268.663 293.134 256.305 292.653 243.16 299.082C235.765 302.7 227.497 304.315 219.607 306.846C217.847 307.462 216.04 307.915 214.207 308.197C209.563 308.741 204.658 308.911 202.722 303.196C200.873 297.746 204.629 294.376 208.355 292.047C218.196 285.835 229.259 283.04 240.089 279.624C242.52 278.863 246.348 279.453 246.872 276.223C247.46 272.086 247.286 267.866 246.362 263.8C245.795 261.098 242.84 262.247 240.947 262.558C230.98 264.137 221.168 266.679 211.631 270.151C205.672 272.575 199.467 274.242 193.144 275.12C189.242 275.524 186.215 274.328 184.512 270.462C182.809 266.595 185.05 264.111 187.423 261.968C196.157 254.203 206.74 250.367 217.308 246.78C225.124 244.125 233.204 242.385 241.166 240.227C245.096 239.155 246.988 233.689 245.722 227.354C244.775 222.695 241.602 225.024 239.259 225.18C220.178 226.496 201.501 231.638 184.206 240.336C181.162 241.621 177.961 242.431 174.7 242.742C172.429 243.084 170.028 242.603 168.979 239.932C167.932 237.261 169.547 235.677 170.974 234.124C174.496 230.304 178.98 228.021 183.42 225.723C207.511 213.3 233.291 207.865 259.755 206.731ZM440.752 206.576C460.622 205.023 480.054 218.052 487.23 237.323C489.667 244.049 490.664 251.271 490.147 258.461C489.631 265.651 487.616 272.627 484.247 278.879C479.414 287.668 465.062 303.569 453.97 297.668V297.73C446.939 293.957 443.78 284.003 439.413 277.543C433.571 269.036 426.921 261.193 419.571 254.141C416.82 251.501 414.157 249.156 411.944 246.857C406.122 240.817 403.575 235.087 411.362 224.9C417.869 216.359 430.009 207.43 440.752 206.576ZM50.5029 236.624C57.6648 217.353 77.098 204.277 96.9678 205.877C107.711 206.731 119.865 215.66 126.372 224.201C134.087 234.279 131.51 240.009 125.717 246.112C123.519 248.411 120.84 250.771 118.104 253.396C110.745 260.444 104.092 268.287 98.249 276.798C93.8821 283.211 90.7377 293.165 83.6924 296.985C72.6002 302.948 58.2469 286.985 53.4141 278.18C50.0535 271.924 48.0477 264.944 47.5439 257.754C47.0402 250.563 48.0514 243.344 50.5029 236.624ZM219.746 29.9424C216.56 21.1956 204.196 21.1957 201.01 29.9424L186.551 69.6895L146.804 84.1475C138.057 87.3338 138.057 99.6976 146.804 102.884L186.551 117.342L201.01 157.088C204.196 165.835 216.56 165.835 219.746 157.088L234.204 117.342L273.951 102.884C282.698 99.6977 282.698 87.3337 273.951 84.1475L234.204 69.6895L219.746 29.9424ZM320.311 96.7891C318.717 92.4156 312.535 92.4156 310.942 96.7891L303.713 116.662L283.84 123.891C279.466 125.484 279.466 131.666 283.84 133.259L303.713 140.488L310.942 160.361C312.535 164.735 318.717 164.735 320.311 160.361L327.54 140.488L347.413 133.259C351.787 131.666 351.787 125.484 347.413 123.891L327.54 116.662L320.311 96.7891Z" fill="#FF7F50"/>
</svg>
